<mxfile host="app.diagrams.net" modified="2024-05-14T10:15:02.919Z" agent="Mozilla/5.0 (Macintosh; Intel Mac OS X 10_15_7) AppleWebKit/537.36 (KHTML, like Gecko) Chrome/124.0.0.0 Safari/537.36" etag="J0Qnbz6PT8JO-YGwF4pI" version="24.4.0" type="github">
  <diagram id="f106602c-feb2-e66a-4537-3a34d633f6aa" name="Page-1">
    <mxGraphModel dx="2954" dy="1122" grid="1" gridSize="10" guides="1" tooltips="1" connect="1" arrows="1" fold="1" page="1" pageScale="1" pageWidth="1169" pageHeight="827" background="none" math="0" shadow="0">
      <root>
        <mxCell id="0" />
        <mxCell id="1" parent="0" />
        <mxCell id="OVsyE5vBwxywcxYR52yi-20" value="" style="shape=image;verticalLabelPosition=bottom;labelBackgroundColor=default;verticalAlign=top;aspect=fixed;imageAspect=0;image=https://doc.traefik.io/traefik/assets/img/traefik-architecture.png;" vertex="1" parent="1">
          <mxGeometry x="65" y="130" width="1033.47" height="540" as="geometry" />
        </mxCell>
        <mxCell id="OVsyE5vBwxywcxYR52yi-21" value="amp.swi.srse.net" style="whiteSpace=wrap;html=1;shape=mxgraph.basic.cloud_rect" vertex="1" parent="1">
          <mxGeometry x="40" y="220" width="180" height="90" as="geometry" />
        </mxCell>
        <UserObject label="&lt;span style=&quot;color: rgb(0, 0, 0); font-family: Helvetica; font-size: 12px; font-style: normal; font-variant-ligatures: normal; font-variant-caps: normal; font-weight: 400; letter-spacing: normal; orphans: 2; text-align: center; text-indent: 0px; text-transform: none; widows: 2; word-spacing: 0px; -webkit-text-stroke-width: 0px; white-space: normal; background-color: rgb(251, 251, 251); text-decoration-thickness: initial; text-decoration-style: initial; text-decoration-color: initial; display: inline !important; float: none;&quot;&gt;amplab.swi.srse.net&lt;/span&gt;" id="OVsyE5vBwxywcxYR52yi-22">
          <mxCell style="whiteSpace=wrap;html=1;shape=mxgraph.basic.cloud_rect" vertex="1" parent="1">
            <mxGeometry x="90" y="369" width="220" height="90" as="geometry" />
          </mxCell>
        </UserObject>
        <mxCell id="OVsyE5vBwxywcxYR52yi-23" value="amp.swi.srse.net/distributiontool&lt;br&gt;amp.swi.srse.net/feedbacktool&lt;br&gt;amp.swi.srse.net/api" style="whiteSpace=wrap;html=1;shape=mxgraph.basic.cloud_rect" vertex="1" parent="1">
          <mxGeometry x="80" y="510" width="240" height="100" as="geometry" />
        </mxCell>
        <mxCell id="OVsyE5vBwxywcxYR52yi-24" value="&lt;font style=&quot;font-size: 20px;&quot;&gt;BDS&lt;/font&gt;" style="whiteSpace=wrap;html=1;shape=mxgraph.basic.cloud_rect" vertex="1" parent="1">
          <mxGeometry x="830" y="110" width="290" height="150" as="geometry" />
        </mxCell>
        <mxCell id="OVsyE5vBwxywcxYR52yi-25" value="" style="whiteSpace=wrap;html=1;shape=mxgraph.basic.cloud_rect" vertex="1" parent="1">
          <mxGeometry x="780" y="290" width="180" height="150" as="geometry" />
        </mxCell>
        <mxCell id="OVsyE5vBwxywcxYR52yi-26" value="" style="whiteSpace=wrap;html=1;shape=mxgraph.basic.cloud_rect" vertex="1" parent="1">
          <mxGeometry x="964.47" y="305" width="134" height="120" as="geometry" />
        </mxCell>
        <mxCell id="OVsyE5vBwxywcxYR52yi-27" value="FROM SRSE INTRANET" style="rounded=0;whiteSpace=wrap;html=1;" vertex="1" parent="1">
          <mxGeometry x="250" y="140" width="220" height="70" as="geometry" />
        </mxCell>
        <mxCell id="OVsyE5vBwxywcxYR52yi-28" value="FRONTENDS" style="whiteSpace=wrap;html=1;shape=mxgraph.basic.cloud_rect" vertex="1" parent="1">
          <mxGeometry x="750" y="470" width="140" height="110" as="geometry" />
        </mxCell>
        <mxCell id="OVsyE5vBwxywcxYR52yi-29" value="BACKENDS/API" style="whiteSpace=wrap;html=1;shape=mxgraph.basic.cloud_rect" vertex="1" parent="1">
          <mxGeometry x="890" y="510" width="140" height="110" as="geometry" />
        </mxCell>
        <mxCell id="OVsyE5vBwxywcxYR52yi-30" value="" style="shape=image;html=1;verticalAlign=top;verticalLabelPosition=bottom;labelBackgroundColor=#ffffff;imageAspect=0;aspect=fixed;image=https://cdn2.iconfinder.com/data/icons/boxicons-logos/24/bxl-docker-128.png" vertex="1" parent="1">
          <mxGeometry x="802" y="530" width="38" height="38" as="geometry" />
        </mxCell>
        <mxCell id="OVsyE5vBwxywcxYR52yi-31" value="" style="shape=image;html=1;verticalAlign=top;verticalLabelPosition=bottom;labelBackgroundColor=#ffffff;imageAspect=0;aspect=fixed;image=https://cdn2.iconfinder.com/data/icons/boxicons-logos/24/bxl-docker-128.png" vertex="1" parent="1">
          <mxGeometry x="792" y="480" width="38" height="38" as="geometry" />
        </mxCell>
        <mxCell id="OVsyE5vBwxywcxYR52yi-32" value="" style="shape=image;html=1;verticalAlign=top;verticalLabelPosition=bottom;labelBackgroundColor=#ffffff;imageAspect=0;aspect=fixed;image=https://cdn2.iconfinder.com/data/icons/boxicons-logos/24/bxl-docker-128.png" vertex="1" parent="1">
          <mxGeometry x="830" y="538" width="38" height="38" as="geometry" />
        </mxCell>
        <mxCell id="OVsyE5vBwxywcxYR52yi-33" value="" style="shape=image;html=1;verticalAlign=top;verticalLabelPosition=bottom;labelBackgroundColor=#ffffff;imageAspect=0;aspect=fixed;image=https://cdn2.iconfinder.com/data/icons/boxicons-logos/24/bxl-docker-128.png" vertex="1" parent="1">
          <mxGeometry x="830" y="470" width="38" height="38" as="geometry" />
        </mxCell>
        <mxCell id="OVsyE5vBwxywcxYR52yi-34" value="" style="shape=image;html=1;verticalAlign=top;verticalLabelPosition=bottom;labelBackgroundColor=#ffffff;imageAspect=0;aspect=fixed;image=https://cdn2.iconfinder.com/data/icons/boxicons-logos/24/bxl-docker-128.png" vertex="1" parent="1">
          <mxGeometry x="770" y="542" width="38" height="38" as="geometry" />
        </mxCell>
        <mxCell id="OVsyE5vBwxywcxYR52yi-35" value="" style="shape=image;html=1;verticalAlign=top;verticalLabelPosition=bottom;labelBackgroundColor=#ffffff;imageAspect=0;aspect=fixed;image=https://cdn2.iconfinder.com/data/icons/boxicons-logos/24/bxl-docker-128.png" vertex="1" parent="1">
          <mxGeometry x="760" y="472" width="38" height="38" as="geometry" />
        </mxCell>
        <mxCell id="OVsyE5vBwxywcxYR52yi-39" value="" style="shape=image;html=1;verticalAlign=top;verticalLabelPosition=bottom;labelBackgroundColor=#ffffff;imageAspect=0;aspect=fixed;image=https://cdn2.iconfinder.com/data/icons/boxicons-logos/24/bxl-docker-128.png" vertex="1" parent="1">
          <mxGeometry x="901" y="510" width="38" height="38" as="geometry" />
        </mxCell>
        <mxCell id="OVsyE5vBwxywcxYR52yi-40" value="" style="shape=image;html=1;verticalAlign=top;verticalLabelPosition=bottom;labelBackgroundColor=#ffffff;imageAspect=0;aspect=fixed;image=https://cdn2.iconfinder.com/data/icons/boxicons-logos/24/bxl-docker-128.png" vertex="1" parent="1">
          <mxGeometry x="975" y="580" width="38" height="38" as="geometry" />
        </mxCell>
        <mxCell id="OVsyE5vBwxywcxYR52yi-41" value="" style="shape=image;html=1;verticalAlign=top;verticalLabelPosition=bottom;labelBackgroundColor=#ffffff;imageAspect=0;aspect=fixed;image=https://cdn2.iconfinder.com/data/icons/boxicons-logos/24/bxl-docker-128.png" vertex="1" parent="1">
          <mxGeometry x="949" y="518" width="42" height="42" as="geometry" />
        </mxCell>
        <mxCell id="OVsyE5vBwxywcxYR52yi-42" value="" style="shape=image;html=1;verticalAlign=top;verticalLabelPosition=bottom;labelBackgroundColor=#ffffff;imageAspect=0;aspect=fixed;image=https://cdn2.iconfinder.com/data/icons/boxicons-logos/24/bxl-docker-128.png" vertex="1" parent="1">
          <mxGeometry x="911" y="576" width="38" height="38" as="geometry" />
        </mxCell>
        <mxCell id="OVsyE5vBwxywcxYR52yi-43" value="" style="shape=image;html=1;verticalAlign=top;verticalLabelPosition=bottom;labelBackgroundColor=#ffffff;imageAspect=0;aspect=fixed;image=https://cdn2.iconfinder.com/data/icons/boxicons-logos/24/bxl-docker-128.png" vertex="1" parent="1">
          <mxGeometry x="990" y="520" width="38" height="38" as="geometry" />
        </mxCell>
        <mxCell id="OVsyE5vBwxywcxYR52yi-44" value="" style="aspect=fixed;sketch=0;html=1;dashed=0;whitespace=wrap;verticalLabelPosition=bottom;verticalAlign=top;fillColor=#2875E2;strokeColor=#ffffff;points=[[0.005,0.63,0],[0.1,0.2,0],[0.9,0.2,0],[0.5,0,0],[0.995,0.63,0],[0.72,0.99,0],[0.5,1,0],[0.28,0.99,0]];shape=mxgraph.kubernetes.icon2;prIcon=sa" vertex="1" parent="1">
          <mxGeometry x="610" y="361" width="123.96" height="119" as="geometry" />
        </mxCell>
        <mxCell id="OVsyE5vBwxywcxYR52yi-45" value="Compute&#xa;Engine" style="sketch=0;html=1;verticalAlign=top;labelPosition=center;verticalLabelPosition=bottom;align=center;spacingTop=-6;fontSize=11;fontStyle=1;fontColor=#999999;shape=image;aspect=fixed;imageAspect=0;image=data:image/svg+xml,PHN2ZyB4bWxucz0iaHR0cDovL3d3dy53My5vcmcvMjAwMC9zdmciIHhtbG5zOnY9Imh0dHBzOi8vdmVjdGEuaW8vbmFubyIgd2lkdGg9IjIwIiBoZWlnaHQ9IjIwIiB2aWV3Qm94PSIwIDAgMjAgMjAiPiYjeGE7CTxzdHlsZSB0eXBlPSJ0ZXh0L2NzcyI+JiN4YTsJLnN0MHtmaWxsOiM0Mjg1ZjQ7fSYjeGE7CS5zdDF7ZmlsbDojNjY5ZGY2O30mI3hhOwkuc3Qye2ZpbGw6I2FlY2JmYTt9JiN4YTsJPC9zdHlsZT4mI3hhOwk8cGF0aCBjbGFzcz0ic3QyIiBkPSJNNyA3aDZ2Nkg3eiIvPiYjeGE7CTxwYXRoIGNsYXNzPSJzdDEiIGQ9Ik05IDBoMnY0SDl6TTUgMGgydjRINXptOCAwaDJ2NGgtMnoiLz4mI3hhOwk8cGF0aCBjbGFzcz0ic3QwIiBkPSJNOSAxNmgydjRIOXptLTQgMGgydjRINXptOCAwaDJ2NGgtMnptMy01VjloNHYyem0wIDR2LTJoNHYyem0wLThWNWg0djJ6Ii8+JiN4YTsJPHBhdGggY2xhc3M9InN0MSIgZD0iTTAgMTFWOWg0djJ6bTAgNHYtMmg0djJ6bTAtOFY1aDR2MnoiLz4mI3hhOwk8cGF0aCBjbGFzcz0ic3QyIiBkPSJNMyAzdjE0aDE0VjN6bTEyIDEySDVWNWgxMHoiLz4mI3hhOwk8cGF0aCBjbGFzcz0ic3QxIiBkPSJNMTAgMTBsLTMgM2g2eiIvPiYjeGE7CTxwYXRoIGNsYXNzPSJzdDAiIGQ9Ik0xMyA3bC0zIDMgMyAzeiIvPiYjeGE7PC9zdmc+;" vertex="1" parent="1">
          <mxGeometry x="800" y="310" width="42" height="42" as="geometry" />
        </mxCell>
        <mxCell id="OVsyE5vBwxywcxYR52yi-46" value="Cloud Run" style="sketch=0;html=1;verticalAlign=top;labelPosition=center;verticalLabelPosition=bottom;align=center;spacingTop=-6;fontSize=11;fontStyle=1;fontColor=#999999;shape=image;aspect=fixed;imageAspect=0;image=data:image/svg+xml,PHN2ZyB4bWxucz0iaHR0cDovL3d3dy53My5vcmcvMjAwMC9zdmciIHhtbG5zOnY9Imh0dHBzOi8vdmVjdGEuaW8vbmFubyIgd2lkdGg9IjM2NS40NjQ5OTY3NzA0MjQ5MyIgaGVpZ2h0PSIzNzkuMjIyOTk0NDYzNTc3OTUiIHZpZXdCb3g9IjAgMCA5Ni42OTU5OTkxNDU1MDc4MSAxMDAuMzM1OTk4NTM1MTU2MjUiPiYjeGE7PHN0eWxlIHR5cGU9InRleHQvY3NzIj4mI3hhOwkuc3Qwe2ZpbGw6IzQyODVmNDt9JiN4YTsJLnN0MXtmaWxsOiNhZWNiZmE7fSYjeGE7PC9zdHlsZT4mI3hhOwk8cGF0aCBjbGFzcz0ic3QwIiBkPSJNMjkuNzk0IDEwMC4zMzZMNDYuOTIgNTAuMTY4aDQ5Ljc3NnpNMCA5OS42NzFsMTIuOTc2LTQ5LjUwMkgyOS4yMkwxNi44OTcgOTIuMDU0eiIvPiYjeGE7CTxwYXRoIGNsYXNzPSJzdDEiIGQ9Ik0yOS43OTQgMEw0Ni45MiA1MC4xNjhoNDkuNzc2ek0wIC42NjZsMTIuOTc2IDQ5LjUwMkgyOS4yMkwxNi44OTcgOC4yODN6Ii8+JiN4YTs8L3N2Zz4=;" vertex="1" parent="1">
          <mxGeometry x="877" y="352" width="34" height="42" as="geometry" />
        </mxCell>
        <mxCell id="OVsyE5vBwxywcxYR52yi-47" value="" style="shape=image;html=1;verticalAlign=top;verticalLabelPosition=bottom;labelBackgroundColor=#ffffff;imageAspect=0;aspect=fixed;image=https://cdn2.iconfinder.com/data/icons/boxicons-logos/24/bxl-docker-128.png" vertex="1" parent="1">
          <mxGeometry x="951" y="560" width="38" height="38" as="geometry" />
        </mxCell>
        <mxCell id="OVsyE5vBwxywcxYR52yi-48" value="" style="shape=image;verticalLabelPosition=bottom;labelBackgroundColor=default;verticalAlign=top;aspect=fixed;imageAspect=0;image=data:image/png,iVBORw0KGgoAAAANSUhEUgAAAgAAAACLCAQAAAC9melDAAAABGdBTUEAALGPC/xhBQAAACBjSFJNAAB6JgAAgIQAAPoAAACA6AAAdTAAAOpgAAA6mAAAF3CculE8AAAAAmJLR0QA/4ePzL8AACE6SURBVHja7Z15gE5VH8c/M5YRMxpSiTaUIUuotKnsSa/2lNcWWkRFi1dIWSqK3hKSCEklbdJClEhJRans0UsqCdnGvjzvH5PMM/esd3lmhvO9/z3Pvefce8/9fc85vzWJxCGZDM6hJuU5lbIUJo1ktpLJLtawjGUs5it24+DgcIShOC15lY3ENMdOPqIbZ7gX5uBwpKABr7BTK/rZj4PMog1F3atzcMjPSKY5C6xEP/uxke4Ucy/RwSF/om4A4T90rKcrBd2rdHDIXyjFa4GF/9DxLTXcC3VwyD9oxh+hiX+MGHvp59YBDg75AQXow4FQxT/rmE4J93IdHPI2UpkWgfBnHSuo7F6wg0O4SAp15/8BtTXnZPIZ37GclWxlJ3spQilOoTzncCGnaq79i4Z854bMwSEv4jh+VM7gmxhOHeVevjI9WKIxDZ6d7fxjKU95ypPuXr6DQ+4ija8UgruMdhQ2XJHU5X1FSxvowjBm8St74lyH1jGHF+nCuU5d6OCQaCTzoVRk/6AtyZbtXcQ837qCTN6ktVsVODgkDv2l4jjKpygmczeZAVSGO3mJi93AODhEjyYcFArhNloEareKRiOgPz7ncjc8Dg5RIp1fhcL3G9UCtlyJGSGYD2dT3Q2Sg0NUGCsUu5WcHpBWnmZvSB4E+3jGxRY6OESB2sLl/2+UC9BmMm1YH7Ib0VJqucFycAgXScwRCNv2QIvuuiyMxJNwD+3dgDk4hIkmQlFr5bu903kjMlfiGDH+a22QdHBwkGKmQMjG+WyrGI+yy0CIt/A2D9KMDI77+8o0qtCUnkxhk/bqlynghs3BIQycI/TUO87XVqKVxJYQb1YcxaVKT7+CNGAEW5WtvO4owMEhDAwTiNetPto5j7la4V9HF1IN20vjbtYq2hrhhs7BISgKC7L8rrL2xD+Jsdr8AVt50NqMV5SebJO2+KAbPgcH/6hMZ6YKBOsOq1ZS6K4Q0qzjAGMo7fMuyzFb2mojN4gODvaoxtP8Jp2pj7Fo6RpWGrjynhvobpN5WOKm/AcnucF0cDBHIdozXymuo43bqmrg5LuWFqGkK7lRUpVgihtSBwczFOQWVmlFtqFRWyUZyj5tLF/fEJ13G0rMize4gXU42mEyx9bhBYN8fLspyS4tkdxBP0pqzppEN34J9SmbMIVCnl9/pyI7cumtn0JFMqhIKmkUpwDb2Ukma1nBcla4CokOeYUAUhlAJyP/uVnU087ET1NVc853dGFOBM/ZieGCX7vzZILfd3kaUZ96HK84Zx9fM5OZfM5+94EeYSjGU0qZe5plofSTIc2GsZtXzZupbqCoO+xmq0IF3jGoA3RbhK66Y4U5BosnbOiL04YZEpWkLIviSGo6mTmi0FYz5k+H1E9HRV5NY9zAdovP9XZpO4V5jN3aUJ3BHBvpq09jjaDf3gkZ9hMY7Du/kX5l5ZB/MEtbETMlrxDAQ1azVYwGknYK8an22vepmICXf4UwcDnqJKLHMogdAYOYZnG+k50jAKcbyNS1eYMA+lh/pDKL/X3aSP0mVo9Wk4GM42FfGQfeE/T/r0iHvCm/hBLHeJCRpDkJyufoazDS7+YFAlCL//d0FHjwVZK0paoR/BddBdp5OU5jUrY8P0Osy4XVEDDw2xFuOl4JNZh5NXWcDOVjJBmY0mPs8+35GhoBdFTW6r0CQBBxd7qktY2SlvYzglJW+tN+HpeejdxpGdv3oaD0aDQz6xmaQin+kpt1d3KUb9HAcJTvz10CqBNXciN+vr71HxOGOQFsEbY10yprUBL/lsb3/UB9i5aaCVpoFslg/xVRUpORLpw5n2KC4Qgvyk0COEVa2vvjuKVJEAL4meutHuZcvtC8sreMNQIFBNkGh4Q+1I0l7sfhHK+76kf5EMUtVMHn5R4BTJdc9niOeccvAWynJ0UsHqQ0Y4zKje/iMcN8AaM91y4OXfx3RSj+jgLyJ263GN/ncosA2kiCZzt6zvRHADMoY/EQKfxHGy4cb9JrbeDafJ1AG1EkxIGuEaiikekx1ElUPsNci9HdYhVXGxoBHM8GoQGqjeBccwLIfuZtFo9wFT/5EIx5Wov5SYKrwisdUtrY7LeEp7mF8ziNEqRTmkpcTQ+mGa8ebnUylY9Q0dKr5ubcIIARFjrJaAmginQrMlOT8S/GQV7SrDO8InpTSMNcyIjn/2QgFaRtHENro1b2cJGTq3yDgZYT2bTEE8CZwko84wzEOlwCKMmzknDhhdQFTmSUViuwnR6KZb03l3HPkIb5Ye3AbucRI11FI77TtvWTq3eUT1BAmaNSvO0+JdEEMEFokCiaUAIoSCeJ38AG7simhqwlLEiSMz/hdZJeXvScOzCUYa4uNaAeOr5UzPzej6a7tr1nnGzlCzT1sZntmVgCKCOY/w8oFplREEA9vpe4v4wUuAw143/alyj2NnjKc97wEAY5mW+08ZK2Fvw6UjeqQyN0oZOufIBJ0hH8TPrPikD5sKwJoL9l+uywCaA8b0tueKrUybgofbS21X0M91Qq8Hpkjw9hkFtH4t9VSaNU/MJJV55HSWks7AqqKsa2TuIIIFmQ6HOH0ic5TAJI5XGJ7ns5V2oe9BQmavWrm7g7zm4eBQEU1vh5P+K75TM1hVKbOQnL47hbucyXrxtfTBwBXCY4cZCyg7AIIIk2kizDW7ifwoYL5QXazcDibInAB3v+HRZ4kO/SFCQLgkuUORR/cPUO8zgWKBV9nRQK49ToCSBrZrzR08CBCBxkvbiAIdQW/rOHq/jMsJXPOY/2PMqJinPOYjpTuJ+VIIgh3BbwOZK4R/HvSjoFan0O/egn/bcajQMbjQ6tYipSidIUI50tZLKJpSxjT4TjX4jyVOYESlCUA+xkK7+wgjUcTMC3l0IVzuI40kghk79YxWLWR9BPVWlh+k9YC7zCYInbTyrX81LUryGLABp7fp/GrxH3XIaBtJIqOlL4mGH0Y4tRWwcZzRs8xD3KNcNVNOEZHuM0wSolGC7nTOl/MVqzPWD7j3OVokLCnVICuE5yX+tzmHfL0IrGXCwwnR5gPlOZwnehjn0SF9GE+tQWujRnMoeZvMMqy1Yv5FLJP4PiKOUkWvIvLhb0vYKpvMrXoT5rB+k/L/397b0rdfu5JXoCACgrWCg011xjvgXYJtgCFKGnUbqxP+OMf3pUFKb8iD9+F8TpBU0QPkXR35hQxuhChaZjv/TdT5ZcsSDbOTV5R5umPcY8WoUUhViSHqwwSoHyKTdabW96StsqlE2j8rKBsbZJaLJViD+lZXQOmdgbK95BBZ/9WukAbhLoztMjJIDr+dnCHvodl1nOxkusba5VAg3y8eyXtrzbKvpBhTcU9/+QTwIoxQQLF9UfBStFOxxLX60nZ07nrytCI4AiPKEV/sPxpceHMmrXGpTRSRZmq8w6+iaCAB71YVzySwDVBX54WVz3Gg0l/8WYJG1dzLpdrKLx9xoqG2Vor2j7hdDmkhoKUf3GFwE0ZJ01VY4K4H14hc/0aJO0lSRMCKAiC616/UW6dw9nbXiJUgIP18cqED0BvGOZ4ts/AXwvmSvn/2PzvE6yOthJf4pZvIBSjFDMyzlnmWCYrGi7MuHhU8VSsaw1AdxqsPAXBzGV96VgHBkg9vFno/eoIoCLNC5VYjvUBQFH7EShe33WE2XXfpVTkHuD6AnAm7qqQ0QEIC7T2SFupyfXD6ylpZV31NnSFUX8MTjQIB+jcEYKV53UTvEMHS0J4BbL6LTsxzpqWG+S5gQQ/xgxNhtsBHsqXGq2++p1E2cEGrEHpC0/nOPM2dIzJ0RPAH/68EEKhwD2MEhYmqMML0k+0C8s6wWb6BuC7WwvVbTcJVQCKK7IM/SaFQFsN14dyT6iDCvxDyM74g5prRs9AWzx3et3Vklrc+IH6YqtvEffL6+TmR4tARQUxNZVTAgBvKcwnsH5zJO4T4yxyptahF7KFB27AyZf6KZouwLh4iNF6JPt5iTY8bPS6yI7SkgiPPzQTjmfBBDkeMj3aJ0nbfNTz7nFFHJye7QEkCo46bjICWAJlxtYi1tLvAS30d2qgkpZXlYsee8MJJTyQI//hW6wVZHNCQklgBizjEx0yXwQYp/fKEc9GgLINKa6nHhO2uYtgrPHKMySkRJAuuCk4iESwHbBfq67sd69KH0kcQIrBf6L6qX6cmnAUIMAQinfYowNnQBqKz7UpgkmgBgPGNzx4yH3OSDhBOA3WLyI1BKVKUxEf0moqmQLAighOOn4yFYAttUAsnSkb0keZrqVBb8o4yTtbOAknyJZWJGcpEvoBHCMQnN/T0AC+I2JPEMP7qM34/jeQEm4U+BTmXMbt1/TwkQ6UoOTSCGdDC6jL18pe96jEIaoCGCDr3p9N0vbGye5YmmIFGSlA/C+8NMiWgHM5Wyfn349yfy9j2cNrcRZuEciQtN8Rl+fofhw6hI+5E5OT/kmgN08w7me5y9DD37XZidWk+Mi5dK6t2QqOE+aEC5GjA8DE8AynuYGLqY6dWnJaGEmzOARl3J9TT3r+19nnQXaygrg1ZFeHBEBBElk+aTikTpZvKDrJbbZjr7uqqHisykbAQFMVviu+SMAVU2FVAZp0q+pnGU6K66bqzGwdVGsHc4JQABfCnRPhemlqeMwwnqcykrvf7VUd1JW8cxNoyQA79zaIl8RQJabqvk+/mrhKmCTgerTi/YKD/0ocvcPl/Y33xcB6F1Nr1IKx6uKDZd8/fCBQSL2m6RbgUk+CeAAj0iF73yluXqJ9Tj1krbVT3HVNOlVb0RJAB8KyoDkNwKIEeNtYx+1TiHxPHRV7KmjQE9FilB7ArjbqM/LFZqHfZxsPf/PNNxTPyXVA5TyQQAHNdNaY4Xu4YB1ZP4yaVsZStKLWT5zYAJIBsGncwF5G+tYKfj1WpYwwGionhMKewcfJcfl7slbInnyrYoZ1xYjDMuLfMR/pP8VpKXknzskv/9Fa8McAz35XaJb8JM1v5fEWeoQpis0GslKjxUv6kjF/HOWK657h01SfUqLaEQpGfheYG4qkqcJYC1V6C5I45HCg6ygrYFC736WeX4r5KP2rtyJaHckT77LBxWJsYZuxucOUYSHiQngQqpJzr/XeG20R6jYzKJ6W8w30KSrtkOnWvXWTvqPOr5/LxN9tBmYAOYKPqaGeXwNsJcnyWCsIHfMSYxjnnYNs4u2HPD8eot1EGjRPEMAtiuAQewwPvegwuZfTbhukmVYWKnQGngxgZhkhrWlu/9IWopftsvTntjoh4pJPVR28abmWrnvSE3rCAxjAlguUAxcp7nOm+PmjISTwB+053wBfUFt5jJeo4X/WsDGKbS1vIcDyjcbPgr4uBMRNkut0WLMk4YcI5wsZIazx9hv0euf/CBZEF9sdfdLBc63IkwNhV5vEDr6ALyt3RguEKzHD6FtVAQQEzx4c00IwreClzfMyiIfDuZTh5aC9GVJtGaRxt34YXYK9AB22OljcxAE8lZ3WLUz1vJ81dxU3/NLBcmeebfQWKmCbE62i9V/z/C8H6T/2GSM8LsB0J3T2pdDkgEBwBTBMqaDZgF5wKMO6sxP3JXwwtUxXqUS/QWL43TeUCYS+U3wsitJ9655nQB2WrXzsXXPE6WqO69dXrYBm26dHXGd5He75fBMw/OWSf8xdxMrJ81M+JvRfYxnr3Qb0jT8DypLXKeR6dGe38sIxUc1h9t5zsNIJRlKR7rGfV5JCSCBHTzMiwzy7L3SuFOp2BtGR8/9XcWPoRDA8ZE86QmhrAAOCDdOuk3DQknl5Qqkkhn3iyxkuwozLHuVEXhFq1bWGp63NYQRaif94scbbdM28SHXSNt+JyoRekFgMeyluaYSUyW2xsnZNAKZEfgBfCU5p4vnTnQz3ZyAtXZuVliei0UwTuOkvc0WnD1ZGuXuB3InpHM964tYxMefgvuT+wGY2tBLBq7rlKQIDqtk2MZVCq8L05gVKz+ALALworsmJmAZV9CMFYJ/rmYRA6WqkOjws+cX3T28JVjQ2phAVyv+OzmCJ5S3ucailV989b3A+K5Oi3ykS1nth01n9n2B76u+1JdknmKDEY8PpRsfuddFQB0AzBfoSdMYo13Av081uglecArdWUG7PF+1ZrLgzs8JiQCqRHC/VaX/2GQf2Oyr72WGBJAcsLS12Uybmie/p2AKwCzs5xUf7QckAOgv5DO9s8heBpPBaIFFvjRj+Cpgxt2osVqwP7SJWFyv0AKcHfrdnqBITmGzAtjkq/ct0n/ireTFo9BWe3BMHvyaiktdlHZrIifjMVr6z1mSSlq+cVhn/ymfCAJqHmcJ7xuIwW2M4Jm4VMdqdVDewVee+crG7TPGUumK4ZzQ7/U8xX+LLdrxVwptq6EwJkY08yIB3Cz1F9ho6WW6TZqUp124qWazG+26CFIgFuBVLjdKSvQtl9GcJy2dJnMfizxea3YuTV9LBf1SCoWwq4xfkcmwxyq5ecxX71sMhbFoQsYtKQ9+S+0Um6TuIfXRgvsU/qABtgCwmGcFZ6TxkWGl8hivU5k+lhbp3MYawULbjgBkSAs9qEruoP19pEU8D00GZoQS4+hERYmZNFwcy9XR6AAAegsjn9OYpq0VeAg76UslJko+gva+98X1pbbRoPB6EaaHRABwfcgfWHXFRib62fNY6T+7cnwDRyfaJ2hVEqoisGCOgWzFPIHarhgTqUVvwwXtWlownCECd80LWcAoeouSEihQnsE+4r9MsUtAeDZYwmqpu0oLHrDyfVejteK/j0ISZX9XxYu8zCUpU+Frb4/teUz8CyjHJ9x14Kk+DblGkJco+EGphPLOMm0ktec2WyT1LibMCiyb75oZn3kYtQOn8hiqcFgJb91SSFFZL1OiEpM5AvkrOn2pYV2iJEke5x0RG4VNqgOrkRbAEahp5M5P5i56PhyBDmMcT0sarcZchlDCWNE0ngwGCzyb0xnIQoMSzEm0ZQWPRJybwPtxHLBs4V3Ffz1Cu89/K6zr0y3VQsf5uoOqijVf/MiLTZJFrUq85je0S2BfHcLbbIg4eZRiw3APK7jTuGLpNrpRVWhGrMRU3lN6dF/APMaFVlxbDm8Eo22c3GzFlqZ2SJkVCiq1yG9btuZPEGsZ61FWS86rcsSKf0lfmYP9opyhWt4nATRSXlGK5/hWmtrYi59oRhOWCv75Fz8yWLizLMt45obt8iCBN2hnvWUL+5QlQIYEqi53CJ0V+fA3adNM5MRZvkKVZD4d+z1prhZJzqx7xBJAy4Q4P0Ww3hARgL5YZnVm8qZFBr2POJuuAgfUwtzPcm7NUR24F8tpnTA7b0ZgAoCRAj/Iw8J2d+B7LEMfxb9jrLMPJVkm1Mi6B9kWYJmnf5nm5cY8ab3PbxsAgOZhuUInC/bEZjx9PUt41DjibR9DqMjzgv31iYzim398CGWt7hSuIcKAN/5/pXUbq5iu+PfxgMmcknlZYZo8yPM+2rSPLG8t3fh5cwXNk5x5SoJWdYlGNWomuMdiYZmYvQRwprFQZ83VrYxZfSN3UkuYnKkWs5lII8m6IsZEKhlndbF9fq9lY4mPdvor/kthknU5tOzop/AAhFcEMZAmS1bbO5InpPrE88ta6Tu0L5dWmkX0SUB8YRC0P5LWHDdYGyW+tOT16xUx06KCF1kKjyciMQOKSjj7c1aaonyKeb6zA3RWtrtHuRGbHFrZ6ysV+fZFxdoflZ5tO1f2/Dsz/wzaaPz/c8sMWJg/pdc1oHygo5XivauKz1sVBolHb88lawTFw3LezDir8ppF6BWXKER2/EGHf9Yo0RDAI54r/vJpra6qKaI1z5firYum1WeVV6sIYLPFrJrCYmk74gQqNaTnT7fSA6TzR9zH+6yCQHKLAK61qtZkhwKs9VVjKAABeHPODOVERms+xBjbeNBKE1qWlzV1YJ+Mi4iKggCSWCnIZuQXz2re0FKFJV0sdkM1La7TWPTVlYHmGJtzByla6SS5Zl4oa49hgusX0kW4gcktApgSsPKSGgOlra9VjF8AAvB+NPcCcA6fa2fslZaeb62lFPCeJyg3CgKoZ/FBmyhmVmnezy66GidNrcX32vd9rfVYxh/DjVY7HZQFvmUU1EpRaMvUZt5O+n2MyTMEcKKk2GyMPaHkhayomCYbRkEAMz2XtM0mYP/TfpQzFSEr8eLSh93CFpZzpeD8KAjgPcHHeVKAwaqnXNMcWgdcp515z+Al7Yorpil1ZUIAMV7Xrtq6Ku/kOel1hfhJetVebjdSO+6VFl6tmGcI4AFFrcpw8KW0h1eiIIBvPJdkz7VblL6aUsox9mkrBCTTIW5vl30H3kUyXOETQG0hfQVDHyPF5hoe4Rzh7HsibfjIQPhjLDOIWjQpD75QYWM4VdPCPqUi6ibltc8r7RAleE5x7YQ8pAP4QXpNWGG7tytWlOmJIIAbPJ/F69qZbhOdpYvdOsyX8PoIxUcRNgEk8YngHoKWYEziLYvMtjMYyoN05na68SiTWGywgsg6tiirzNoQQIwYH9Iix6dUkEsYLQnqOXwM07yLOZpneEjo6l2WHmxUXLdbkl83NwigtkLQwkqGV5wd0l7uCJ8APlVsAbI/+JcGc9QVgsEdL/nIP9WY38ImAFHU4+8hDFoqCyKPBtsreLNBCCCrzflM4QWGMo45gvLvIpLXBRVV0Np6DrKAAXTmGhpyNR14hi/Yr7nmP3nICiBfpwwJ0TQ/QWGCD50A3vVc0lWyjL+N9dqP5J1si8RjeETCZT8b+DWFSwCnsElwHz1DGa50vo5Y/E2zI0yO9D7+bXAHt4Xe6+dSDUriCaAIf0mvqBUiATRUvI/KwQjAuw/1pn4Uu5ocZBQVeUqTJOQaFjOANJK4iWX0EeSL28FDnGVdMy4YCjNJoKX4U2NVN8UWGitKaQbFXppHVx/GalYyqfM7iqGh9rpJWNU5t3CNNDh+saB6pn/MVOR8viVY014CWOX5RZ4ldysPUI0PlD2k8CDL+YqJgnShMSaQwWMRldKW701HCrP1DchR4CoIBTQyyKXsBxu4PICnQnhYwJ2GZ94rqDzpF9toIvg+cw9yd9yxofZzkPEKW0nI1Ti9utsNWt+tK1jqYzH3lVXSzPC2AIMk+Y4Kh0wz3Y20+TbHQosITNUWYKPWkqPz9zjR4i4K8nIoT7+Ty5T9JHoLUFaqrdgXyJgsQjmFevjKcHUA1QUX6UsxFuJeNlsM5u+0tXIJPSvO3OKfAJIl/nr7I8no2lSRxsv22M9/rRNuywhgAY0kPhgmx2Lryj8FGBL4+X/ThjAnmgB6Sc/+IIJvaba0tzfDJYAUwezQ1egWj2ekVoObZcYZYBXNXIJn2RdKTsBUJknu6b8RLRKLMtDoneiOH3wRlJwAoLGRpt97zDBOChePm9kW4PlnCUOOcpcAlknPbh7Bl9RO4TR/fJgEANONKs+KUYNZmqF8m/JWc0cngU3YHwFUY4nknr6NtM5MVcYH2gys5naf+zwVAUAVA2fjnPaHBwMk9jyZt309/1Z6Gj1/YgngEoV/QxRfUzEFgd4TLgF0EzjIVrC41RtZLen8R0HxMRXqS/ys7AkghX7skTrkRB9tXoPXtG414l3/rQFSiqkJAArTxygq81B8Rkbg99CIzywpZ5hxoZbEEsCL0nNHRPQNjZX2+G24BCAK5RxkdavH0NvzYW1U+AaKUF7hU/eFFQEUpD1rFO6sdROkM06nI5/n2MzEFLFezwTMJKQnAIDSDFb63WUtMl/lotDeQx3GGm0/ltHLStuQSAJQzccXRPT9XKZ4VzX8EoBYEbfE416wlQqWNWVP5gla/N3+fp7nEf4yvjaVntyrSAf+Cq0ka49JnieZwJ2Kz2g/LT3XRIviXEZ9alJZOLPtZgVLmM1MVoTQ12SJP/q3OeoZpnAll9OA8p7v4Re+YCpTLUu5mEwRDajLpVQVLJfX8Q3fMMOy2hGcLq3q+IlhubIC0mS3P+WwxKdLU6TGBBmSwrIr1ZcqzpfnSM1eQ5p2f2e8t4u4wQcEM/6TPsobVqU5ZfiZV6WJokWP2ZoBmnTgTSU1ZjooCivnDfGP/4jKcRxpFCOFbWwjk9/4RZFeNDoCODyvZVCaVNLZynY2sjTy+jtJnEw5SlCMomxmM5tZxx845DJEMc67QtgB6nG+IpHEoWOk9Or7rfaXuzxhTkcaTLYADg7CRbYog0y0pZ3KSAOFsiey6qzwHxhhIf5rrQqdOQJwOKpQUais6hZZf0XoyXatK8xITY6VmRYhJaWPglF0BODgG2OEItgokr5M8gTP0urEk4URfqIilfcbZ8NzBOBwlOJ0od16k6CQRjBUN5i3V8dlJZKhlpH4f2zl0+AIwOGohdjXeX2IJR5L8ZzWUTaT3oaeVd21wj83ohWMIwCHIxCFWSTxnLs4hNYLcY8incKhfDGvcLJxi98p9QcfGmbRcQTg4PA3akrcV3cHTUNAY6lf/uHjGyvvs6qKQJoelD0qx88RgENAdJKKlf96d2dqymhllbxoZ2l0HCloZRwtQ4/MdgTgcFRhrKJw1x3WUWrHMUgalHN4ffEEaZbtniyIb//6qB87RwAOIezVpyuEdQm3GBcEO4H+BjHh70o9ulV4QdDSXY4AHAE4BEdx5mry2w/mIuWCvSjNeFM788dY5FNLX1sQb79Dm7TaEYCDgxHSFAmJDu/a36IbTalCSZKBwpSmKs3pzwyjSPhN3O0z7UVhvrUuWuEIwMHBAkUtKt7YH/sYHmC+HiJssZwbNEcADuEhib7Ghavsjo8DeRfeLLyr592AOQJwCBsN+TVk4f+FNoHuqJ4wu+22oyLUxxGAQ8JRitdCE/7t9FBk/THBZZLUUve5gXIE4BAV6vFjCOL/sibrjx7XSpSLXxwlsX4ODrmEZFqwOCABzA5EAAXoL0m1nWlQxsTBwSEwCTRlsnGOW7Enod+UXGdKqw8cjKQog4ODgxCluYNpAcpMvScpbyxHKn0VfgVPuCFxcEg0UriYBxjHl6yPM8plspJpPEl3hcjuZzw1DfspwUNsUNDJhIizFjo4OGiRTjnKUiKulGVTzSrhS+5R1udJ4xre0LTxXoAaOg4ORyWSEtZTM97UFuBewTwW8jNr2cJOilKcEmSQwfmcp3UTfp027HUD6uCQV1FXuXwPdgx1i38Hh7yOU5gfgfDv5lb3ah0c8gNSGR1yRMFiSZkrBweHPImGBlUATItHDzBOR+Lg4JBHUMwoN5DumJKQaoUODg4RoBRPssOn6B/kfS5xr9DBIX+jBHcJs/mojg0Moap7dQ4ORwpq8DCfCQqS5zxWMZwrtb4EDg4OxkjKM3eSyoVUphIZlKEYqaSziz1sZh1rWMUCFvCrGy4Hh3DxfzrOdawTv4qaAAAAJXRFWHRkYXRlOmNyZWF0ZQAyMDIzLTA3LTMxVDA2OjU2OjE5KzAwOjAwB7bMeQAAACV0RVh0ZGF0ZTptb2RpZnkAMjAyMy0wNy0zMVQwNjo1NjoxOSswMDowMHbrdMUAAAAASUVORK5CYII=;" vertex="1" parent="1">
          <mxGeometry x="982.5" y="341.85" width="100" height="27.15" as="geometry" />
        </mxCell>
        <mxCell id="OVsyE5vBwxywcxYR52yi-49" value="" style="shape=cylinder3;whiteSpace=wrap;html=1;boundedLbl=1;backgroundOutline=1;size=15;" vertex="1" parent="1">
          <mxGeometry x="891" y="130" width="60" height="80" as="geometry" />
        </mxCell>
        <mxCell id="OVsyE5vBwxywcxYR52yi-50" value="" style="shape=cylinder3;whiteSpace=wrap;html=1;boundedLbl=1;backgroundOutline=1;size=15;" vertex="1" parent="1">
          <mxGeometry x="842" y="120" width="60" height="80" as="geometry" />
        </mxCell>
        <mxCell id="OVsyE5vBwxywcxYR52yi-51" value="" style="shape=cylinder3;whiteSpace=wrap;html=1;boundedLbl=1;backgroundOutline=1;size=15;" vertex="1" parent="1">
          <mxGeometry x="860" y="160" width="60" height="80" as="geometry" />
        </mxCell>
        <mxCell id="OVsyE5vBwxywcxYR52yi-52" value="" style="edgeStyle=entityRelationEdgeStyle;fontSize=12;html=1;endArrow=manyOptional;endFill=1;startArrow=none;rounded=0;startFill=0;" edge="1" parent="1" target="OVsyE5vBwxywcxYR52yi-24">
          <mxGeometry width="60" height="60" relative="1" as="geometry">
            <mxPoint x="1028" y="570" as="sourcePoint" />
            <mxPoint x="1088" y="510" as="targetPoint" />
            <Array as="points">
              <mxPoint x="1148" y="510" />
              <mxPoint x="1170" y="380" />
            </Array>
          </mxGeometry>
        </mxCell>
        <mxCell id="OVsyE5vBwxywcxYR52yi-53" value="Text" style="edgeLabel;html=1;align=center;verticalAlign=middle;resizable=0;points=[];" vertex="1" connectable="0" parent="OVsyE5vBwxywcxYR52yi-52">
          <mxGeometry x="0.2154" y="-2" relative="1" as="geometry">
            <mxPoint as="offset" />
          </mxGeometry>
        </mxCell>
      </root>
    </mxGraphModel>
  </diagram>
</mxfile>
